<?xml version="1.0" encoding="utf-8"?>
<!DOCTYPE svg PUBLIC "-//W3C//DTD SVG 1.1//EN" "http://www.w3.org/Graphics/SVG/1.1/DTD/svg11.dtd">
<svg style="width:308px;height:308px;" version="1.1" id="图形" xmlns="http://www.w3.org/2000/svg" xmlns:xlink="http://www.w3.org/1999/xlink" x="0px" y="0px" width="1024px" height="1024px" viewBox="0 0 1024 1024" enable-background="new 0 0 1024 1024" xml:space="preserve">
  <path class="svgpath" data-index="path_0" fill="#272636" d="M512 10.238976c-277.118976 0-501.76 224.641024-501.76 501.76 0 277.121024 224.641024 501.76 501.76 501.76s501.76-224.638976 501.76-501.76C1013.76 234.88 789.118976 10.238976 512 10.238976zM512.796672 863.230976c-38.697984 0-70.070272-29.349888-70.070272-65.5616 0-36.209664 31.372288-65.5616 70.070272-65.5616 38.710272 0 70.081536 29.351936 70.081536 65.5616C582.878208 833.881088 551.506944 863.230976 512.796672 863.230976zM638.444544 316.75904 582.76864 626.732032c0 0.344064 0.109568 0.662528 0.109568 1.004544 0 36.211712-31.372288 65.5616-70.081536 65.5616-38.697984 0-70.070272-29.349888-70.070272-65.5616 0-0.342016 0.098304-0.661504 0.109568-1.004544l-55.689216-309.972992 0.784384 0c-0.490496-4.262912-0.784384-8.5504-0.784384-12.911616 0-65.170432 56.252416-117.992448 125.648896-117.992448 69.39648 0 125.647872 52.822016 125.647872 117.992448 0 4.36224-0.293888 8.648704-0.784384 12.911616L638.444544 316.75904z" />

</svg>
